<?xml version="1.0" standalone="no"?>
<!DOCTYPE svg PUBLIC "-//W3C//DTD SVG 20010904//EN"
 "http://www.w3.org/TR/2001/REC-SVG-20010904/DTD/svg10.dtd">
<svg version="1.0" xmlns="http://www.w3.org/2000/svg"
 width="960.000000pt" height="1088.000000pt" viewBox="0 0 960.000000 1088.000000"
 preserveAspectRatio="xMidYMid meet">

<g transform="translate(0.000000,1088.000000) scale(0.100000,-0.100000)"
fill="#000000" stroke="none">
<path d="M5335 8249 c-26 -13 -63 -67 -75 -110 -6 -19 -10 -70 -10 -114 l0
-80 -69 0 c-55 0 -76 -4 -98 -21 -26 -20 -67 -72 -75 -96 -3 -7 -27 6 -56 29
-68 54 -109 67 -212 68 -70 0 -93 -4 -129 -23 -89 -48 -130 -117 -131 -218 l0
-62 -33 -6 c-54 -10 -80 -46 -85 -116 -2 -33 -6 -60 -9 -60 -2 0 -22 9 -45 21
-59 30 -146 36 -205 14 -80 -30 -143 -101 -143 -163 0 -21 -8 -35 -25 -46 -35
-23 -40 -21 -55 27 -32 108 -87 177 -153 195 -99 27 -167 -60 -167 -215 0 -48
-3 -63 -14 -63 -8 0 -18 5 -21 10 -10 17 -81 11 -105 -8 -15 -12 -22 -29 -23
-56 -1 -37 -2 -38 -32 -30 -58 16 -197 10 -236 -9 -53 -26 -124 -99 -153 -155
-26 -52 -52 -172 -42 -197 3 -8 3 -22 0 -30 -5 -13 -10 -12 -34 5 -38 27 -101
27 -126 -1 -15 -17 -19 -37 -19 -100 0 -66 -2 -78 -15 -73 -8 3 -32 8 -53 11
-100 15 -127 -115 -46 -219 16 -20 29 -40 29 -45 0 -4 -37 -28 -81 -53 -45
-24 -99 -60 -122 -80 l-40 -36 17 -140 c19 -158 31 -212 53 -236 8 -9 44 -24
81 -34 37 -9 70 -20 73 -23 4 -3 12 -168 18 -366 7 -198 16 -461 21 -583 l9
-224 -48 -71 c-128 -190 -193 -389 -206 -627 -3 -67 -13 -117 -31 -170 -24
-67 -26 -85 -21 -170 8 -158 48 -230 124 -230 23 0 46 -9 65 -25 31 -26 76
-33 95 -14 7 7 33 13 58 14 74 3 90 26 89 130 l-2 84 32 -6 c17 -4 123 -41
236 -83 113 -42 275 -101 360 -131 l155 -54 215 0 c118 0 249 2 290 4 l75 4 3
-79 c4 -100 -19 -255 -63 -431 -42 -165 -39 -180 38 -219 75 -39 131 -53 253
-65 169 -17 259 6 292 75 15 31 3 81 -31 130 -24 34 -98 82 -150 98 -20 6 -41
16 -46 22 -4 6 -2 49 6 96 7 47 16 155 19 240 2 85 6 155 7 157 6 6 671 54
683 49 31 -12 12 -303 -35 -531 -26 -124 -28 -142 -15 -166 47 -92 446 -150
574 -84 37 19 50 43 50 93 0 73 -72 147 -181 187 l-64 23 3 43 c1 24 3 140 5
257 2 205 3 212 22 212 18 0 192 13 842 66 106 8 217 21 248 29 71 19 75 19
75 -3 0 -35 38 -63 83 -61 23 0 56 -5 73 -12 39 -15 79 -6 109 27 17 19 30 24
45 19 33 -11 87 32 108 85 27 71 23 205 -10 310 -16 51 -31 132 -37 204 -21
215 -97 427 -218 604 l-50 73 4 197 c2 108 10 483 18 832 8 349 18 810 21
1023 l7 388 56 29 c106 53 122 89 109 255 -8 117 -32 199 -65 225 -14 11 -65
32 -112 46 -47 15 -89 28 -93 30 -3 2 0 28 8 57 18 68 18 101 -2 142 -33 69
-127 82 -208 29 -41 -28 -55 -22 -56 21 0 40 -58 124 -100 145 -64 32 -141 22
-179 -24 -20 -24 -34 -19 -60 19 -68 100 -223 118 -326 40 l-44 -34 -34 34
c-43 43 -87 47 -137 10 l-34 -25 -28 52 c-36 66 -65 97 -105 114 -37 16 -99
17 -128 3z m135 -65 c40 -34 69 -91 84 -168 10 -48 17 -61 31 -61 13 0 22 13
32 47 14 50 43 78 79 78 41 0 49 -25 53 -162 l3 -128 -28 0 c-35 0 -47 -8 -63
-37 -16 -31 -14 -58 10 -113 31 -73 52 -82 160 -74 89 6 91 6 120 -22 15 -15
34 -43 40 -63 7 -20 20 -43 31 -52 21 -19 24 -52 6 -66 -7 -6 -26 -10 -41 -9
-34 2 -47 -13 -23 -26 23 -13 20 -27 -4 -21 -16 4 -19 2 -14 -11 4 -12 15 -15
40 -12 19 3 36 1 39 -4 8 -12 -18 -19 -51 -12 -25 5 -27 3 -16 -11 11 -13 10
-16 -10 -22 -25 -8 -53 -19 -138 -58 -30 -13 -66 -28 -80 -32 -14 -4 -27 -11
-30 -14 -5 -7 -136 -68 -204 -95 -46 -19 -86 -12 -86 15 0 25 16 24 23 -1 4
-14 10 -18 22 -13 17 6 17 7 -1 20 -10 7 -15 13 -11 13 4 0 2 12 -3 26 -8 21
-7 25 8 23 37 -3 44 3 68 56 26 61 30 105 13 154 -19 54 -102 54 -163 0 l-34
-29 -39 57 c-24 37 -53 66 -78 79 -38 20 -41 20 -65 4 -14 -9 -31 -15 -37 -13
-7 3 -13 0 -13 -7 0 -6 5 -8 10 -5 6 4 10 -10 10 -35 0 -32 -3 -41 -14 -37 -8
3 -20 -1 -27 -9 -10 -13 -14 -12 -31 3 -19 17 -20 17 -34 -2 -8 -10 -14 -24
-14 -31 0 -7 -10 -16 -22 -20 -13 -4 -26 -12 -30 -18 -25 -38 14 -169 53 -179
11 -3 23 -15 26 -26 3 -11 9 -19 13 -16 5 3 11 1 14 -4 3 -5 -1 -11 -9 -15 -8
-3 -17 -1 -20 4 -4 6 -17 10 -31 10 -14 0 -27 7 -31 18 -11 30 -26 32 -50 6
-27 -29 -29 -36 -9 -28 21 8 56 -14 56 -34 0 -10 5 -23 12 -30 7 -7 8 -12 4
-12 -5 0 -3 -7 4 -15 10 -12 10 -15 -4 -15 -9 0 -16 8 -16 18 0 13 -7 18 -22
18 -16 -1 -23 4 -22 17 1 9 -2 17 -7 17 -5 0 -9 -4 -9 -10 0 -5 -4 -10 -10
-10 -5 0 -10 8 -10 19 0 22 -25 46 -34 32 -3 -5 -3 -16 0 -25 4 -12 0 -16 -15
-16 -14 0 -21 6 -21 20 0 11 -4 20 -10 20 -11 0 -14 -20 -11 -58 1 -15 -6 -26
-24 -34 -15 -7 -25 -20 -25 -32 0 -24 -20 -60 -20 -38 0 9 -7 11 -20 8 -11 -3
-29 -9 -40 -12 -16 -4 -20 -1 -20 20 0 25 -10 33 -23 19 -4 -3 -2 -12 3 -18 8
-10 -1 -14 -37 -20 -33 -5 -55 -15 -75 -37 -23 -25 -31 -28 -43 -18 -14 12
-29 11 -69 -5 -15 -7 -17 -5 -11 13 5 18 2 22 -14 22 -20 0 -22 -3 -25 -30 -1
-6 10 -16 23 -23 14 -7 32 -32 43 -62 21 -54 30 -171 13 -185 -10 -7 -295
-131 -445 -192 -41 -16 -120 -52 -175 -78 -149 -72 -240 -104 -233 -82 2 4 -1
8 -7 10 -5 1 -10 -6 -10 -15 0 -25 -24 -42 -58 -43 -16 0 -26 -4 -23 -9 10
-15 -81 -51 -129 -51 -30 0 -44 4 -40 10 4 6 1 17 -5 25 -10 12 -10 18 0 30
10 12 10 18 0 30 -16 19 -49 -1 -42 -27 5 -22 -13 -25 -22 -3 -9 25 -36 18
-36 -10 0 -14 -6 -25 -12 -24 -12 0 -112 19 -203 38 -22 5 -78 17 -125 26
-112 23 -150 39 -150 65 0 19 13 28 63 44 17 5 17 7 1 28 -9 13 -31 30 -48 38
-21 10 -40 34 -59 71 -25 50 -27 59 -15 78 10 17 19 20 43 15 32 -7 115 -62
115 -76 0 -14 37 -9 50 7 10 11 6 24 -18 67 -49 87 -51 198 -4 198 24 0 86
-47 107 -82 17 -30 36 -35 53 -15 7 8 6 29 -5 67 -32 119 4 255 89 337 54 53
102 73 171 73 72 0 122 -22 179 -77 30 -30 52 -44 62 -40 22 9 20 21 -9 55
-45 53 -60 127 -30 152 23 19 81 -6 117 -51 49 -60 81 -49 52 18 -25 58 -23
177 3 235 34 74 97 79 150 11 40 -51 63 -113 70 -189 9 -96 34 -107 71 -33 22
43 65 68 89 53 29 -18 29 -92 -1 -154 -14 -29 -23 -57 -20 -61 19 -31 77 27
95 94 17 65 5 127 -32 160 -17 16 -37 26 -46 23 -31 -12 11 68 59 110 48 42
154 52 217 20 18 -10 45 -31 60 -48 30 -34 51 -31 51 8 0 27 3 29 29 12 10 -6
26 -8 35 -5 25 10 19 41 -14 65 -63 47 -21 132 65 132 23 0 44 3 48 6 3 4 -1
24 -10 45 -29 74 0 160 73 215 35 27 44 29 123 28 66 0 96 -5 132 -22 42 -20
129 -96 129 -114 0 -4 11 -8 25 -8 23 0 25 4 25 45 0 114 139 162 229 79 14
-13 29 -24 34 -24 17 0 19 34 3 67 -24 50 -24 198 -1 244 28 56 45 69 86 69
26 0 47 -8 69 -26z m669 -197 c0 -21 -1 -21 -9 -2 -12 28 -12 37 0 30 6 -3 10
-16 9 -28z m266 3 c10 -11 15 -20 11 -20 -4 0 -19 9 -33 20 -17 13 -20 20 -11
20 8 0 23 -9 33 -20z m-135 -19 c0 -5 -7 -14 -15 -21 -12 -10 -15 -10 -15 2 0
8 3 18 7 21 9 10 23 9 23 -2z m170 -30 c14 -27 29 -204 19 -215 -5 -6 -9 5 -9
27 0 43 -30 108 -47 102 -7 -2 -15 0 -18 5 -6 10 8 14 34 10 13 -1 12 14 -5
73 -7 23 13 22 26 -2z m-52 -5 c-7 -8 -15 -12 -17 -11 -5 6 10 25 20 25 5 0 4
-6 -3 -14z m-333 -76 c4 -6 11 -8 16 -5 5 4 9 0 9 -9 0 -8 -6 -17 -12 -20 -10
-5 -10 -7 0 -12 21 -10 2 -24 -32 -24 -30 0 -34 3 -34 28 0 42 35 71 53 42z
m-95 -42 c0 -19 -2 -20 -10 -8 -13 19 -13 30 0 30 6 0 10 -10 10 -22z m-42
-38 c-1 -16 -3 -30 -5 -30 -7 0 -21 45 -16 53 10 17 22 5 21 -23z m722 10 c0
-5 -4 -10 -10 -10 -5 0 -10 5 -10 10 0 6 5 10 10 10 6 0 10 -4 10 -10z m-690
-50 c0 -11 7 -20 15 -20 21 0 29 -24 15 -49 -14 -27 -26 -26 -55 5 -23 24 -23
26 -7 55 20 34 32 37 32 9z m697 -22 c-3 -8 -6 -5 -6 6 -1 11 2 17 5 13 3 -3
4 -12 1 -19z m-63 -23 c-4 -8 -10 -15 -15 -15 -5 0 -9 7 -9 15 0 8 7 15 15 15
9 0 12 -6 9 -15z m106 -22 c0 -14 -20 -39 -20 -25 0 6 -7 12 -15 12 -8 0 -15
5 -15 10 0 6 11 10 25 10 14 0 25 -3 25 -7z m-23 -51 c11 8 12 7 7 -6 -8 -21
-44 -21 -44 1 0 13 3 14 12 5 8 -8 15 -9 25 0z m149 -21 c23 -10 55 -22 72
-25 16 -4 37 -15 46 -25 16 -17 15 -19 -21 -24 -21 -3 -119 -44 -218 -92 -218
-106 -305 -146 -399 -185 -167 -71 -320 -167 -230 -146 49 11 153 57 284 123
69 35 156 78 194 95 38 17 146 68 239 114 94 46 174 84 177 84 13 0 32 -113
33 -200 3 -119 -2 -125 -176 -210 -148 -72 -171 -80 -180 -56 -9 23 -47 26
-67 6 -11 -11 -22 -15 -25 -10 -9 15 -25 12 -25 -5 0 -8 -6 -15 -13 -15 -20 0
-52 -39 -52 -63 0 -14 -15 -28 -50 -47 -51 -27 -386 -185 -595 -280 -63 -28
-149 -68 -190 -87 -41 -19 -106 -49 -145 -65 -38 -17 -95 -42 -125 -55 -227
-105 -268 -124 -415 -193 -60 -29 -144 -67 -185 -85 -41 -18 -109 -48 -150
-67 -41 -20 -136 -64 -210 -98 -74 -34 -191 -88 -260 -120 -69 -32 -153 -70
-188 -84 -61 -26 -104 -45 -265 -120 -43 -20 -83 -36 -89 -36 -5 0 -22 -6 -36
-14 -54 -27 -95 -37 -104 -23 -6 9 -8 9 -8 -2 0 -36 -15 6 -17 47 -2 74 -34
216 -50 229 -13 10 -9 13 21 18 20 4 39 11 42 16 3 5 12 9 21 9 8 0 43 13 77
28 33 16 86 40 116 54 30 14 89 42 130 61 41 19 131 61 200 92 69 31 152 70
185 85 33 16 103 48 155 73 163 76 210 100 210 109 0 4 -4 8 -9 8 -21 0 -211
-81 -646 -274 -82 -37 -174 -75 -210 -87 -22 -8 -42 -17 -45 -20 -11 -13 -207
-101 -236 -106 -30 -5 -334 63 -344 77 -3 4 -30 11 -60 17 -50 9 -53 11 -31
20 l25 10 -29 7 c-19 5 -31 3 -33 -3 -4 -13 -32 -15 -32 -2 0 5 8 12 18 16 15
7 14 9 -8 16 -16 5 -8 6 25 3 28 -3 57 -8 65 -11 8 -4 26 -7 40 -9 36 -3 122
-28 117 -34 -6 -6 100 -13 214 -14 91 -1 115 6 254 77 109 55 148 74 340 161
233 107 217 100 290 130 33 13 105 45 160 71 55 25 118 55 140 65 22 10 109
50 193 89 84 39 155 71 157 71 3 0 111 50 299 139 70 34 130 61 132 61 1 0 42
18 91 41 111 51 125 58 253 112 233 99 455 197 635 280 66 30 161 72 210 93
128 54 229 110 233 128 2 9 -1 16 -7 16 -5 0 -3 13 5 30 18 35 25 36 80 11z
m-402 -140 c3 -5 -1 -11 -9 -14 -9 -4 -12 -1 -8 9 6 16 10 17 17 5z m-79 -21
c3 -5 1 -10 -4 -10 -6 0 -11 5 -11 10 0 6 2 10 4 10 3 0 8 -4 11 -10z m-941
-395 c3 -8 -2 -19 -10 -26 -20 -16 -68 7 -52 25 15 16 56 16 62 1z m1426 -302
c-3 -166 -7 -303 -10 -306 -5 -4 -246 -44 -430 -72 -58 -9 -147 -23 -197 -32
-51 -8 -99 -13 -108 -9 -12 4 -15 27 -15 122 0 99 2 115 15 110 11 -4 15 1 15
17 0 16 -3 18 -9 8 -15 -24 -24 8 -11 39 11 25 14 27 26 15 8 -8 22 -11 31 -8
13 5 15 1 11 -19 -5 -24 -4 -25 31 -15 68 18 64 16 51 33 -10 11 -10 18 -1 27
8 8 6 14 -11 25 -21 12 -20 13 20 9 31 -4 42 -2 42 8 0 8 -6 18 -14 22 -8 4
-16 17 -18 28 -2 15 14 27 82 62 89 44 114 51 108 31 -3 -7 -10 -13 -15 -13
-6 0 -15 -4 -20 -9 -4 -5 -3 -6 4 -2 6 3 14 2 18 -4 4 -6 11 -8 16 -4 6 3 16
-2 24 -12 7 -11 17 -15 21 -11 5 4 2 12 -5 16 -11 7 -11 10 0 14 12 4 11 7 -1
16 -12 8 -12 11 -1 11 8 0 11 6 7 16 -4 11 1 18 14 21 11 3 20 10 20 15 0 6
11 8 25 6 18 -4 25 -1 25 11 0 14 2 14 10 1 9 -13 12 -13 23 2 9 12 17 14 30
6 10 -5 15 -13 12 -18 -3 -5 -1 -11 5 -15 5 -3 10 -1 10 5 0 7 8 9 19 5 36
-11 33 15 -3 30 -39 17 -49 31 -14 20 17 -6 20 -4 14 10 -5 14 -2 16 19 11 18
-5 23 -3 20 7 -4 8 18 24 57 44 35 17 63 30 63 29 0 0 -2 -137 -5 -303z
m-1720 255 c0 -13 -23 -5 -28 10 -2 7 2 10 12 6 9 -3 16 -11 16 -16z m-100 -4
c0 -8 -4 -12 -10 -9 -5 3 -10 10 -10 16 0 5 5 9 10 9 6 0 10 -7 10 -16z m55
-4 c3 -5 1 -10 -4 -10 -6 0 -11 5 -11 10 0 6 2 10 4 10 3 0 8 -4 11 -10z
m1435 -4 c0 -3 -4 -8 -10 -11 -5 -3 -10 -1 -10 4 0 6 5 11 10 11 6 0 10 -2 10
-4z m-1670 -33 c1 -17 1 -17 14 0 21 28 41 21 42 -16 1 -17 -1 -26 -3 -19 -8
21 -23 13 -23 -13 0 -18 -5 -25 -19 -25 -17 0 -31 33 -31 76 0 21 20 17 20 -3z
m114 -92 c-19 -21 -25 -10 -31 51 l-5 53 25 -45 c21 -38 23 -47 11 -59z m166
83 c0 -15 -35 -28 -50 -19 -21 13 -9 32 20 32 18 0 30 -6 30 -13z m46 -44 c8
0 14 -4 14 -9 0 -12 -56 -25 -70 -16 -18 11 -11 35 10 35 11 0 21 6 21 13 1 6
3 4 6 -5 2 -10 11 -18 19 -18z m-106 10 c0 -5 -5 -10 -11 -10 -5 0 -7 5 -4 10
3 6 8 10 11 10 2 0 4 -4 4 -10z m-140 -20 c0 -5 -4 -10 -10 -10 -5 0 -10 5
-10 10 0 6 5 10 10 10 6 0 10 -4 10 -10z m115 -30 c3 -5 1 -10 -4 -10 -6 0
-11 5 -11 10 0 6 2 10 4 10 3 0 8 -4 11 -10z m-134 -31 c-9 -22 -10 -22 -10
-3 -1 11 2 24 6 27 12 12 14 0 4 -24z m-231 6 c6 -8 9 -19 5 -25 -3 -5 1 -10
9 -10 10 0 13 -6 9 -16 -3 -8 4 -26 18 -40 l24 -25 11 33 c15 46 39 43 40 -5
1 -36 -16 -63 -24 -39 -2 7 -16 9 -35 6 -25 -4 -29 -3 -17 5 12 9 7 10 -21 8
-33 -4 -35 -2 -31 19 6 34 -27 45 -46 16 -17 -25 -32 -29 -32 -7 0 8 5 15 10
15 6 0 10 5 10 11 0 7 8 18 18 25 9 7 18 17 18 23 1 6 2 13 3 16 2 10 19 5 31
-10z m-90 -21 c0 -8 -4 -12 -10 -9 -5 3 -10 10 -10 16 0 5 5 9 10 9 6 0 10 -7
10 -16z m365 -14 c3 -5 -3 -10 -15 -10 -12 0 -18 5 -15 10 3 6 10 10 15 10 5
0 12 -4 15 -10z m-475 -10 c-19 -13 -30 -13 -30 0 0 6 10 10 23 10 18 0 19 -2
7 -10z m420 -20 c0 -5 -7 -10 -15 -10 -8 0 -15 5 -15 10 0 6 7 10 15 10 8 0
15 -4 15 -10z m-350 -9 c0 -11 -31 -24 -39 -16 -3 3 1 10 9 15 19 12 30 12 30
1z m287 -13 c-3 -8 -6 -5 -6 6 -1 11 2 17 5 13 3 -3 4 -12 1 -19z m1405 -20
c-6 -6 -16 -7 -22 -3 -9 6 -9 9 1 16 17 10 34 0 21 -13z m-1641 -35 c4 -22 2
-33 -7 -37 -8 -3 -14 -10 -14 -16 0 -6 5 -8 12 -4 6 4 8 3 5 -3 -8 -13 -87 4
-87 19 0 6 7 8 15 4 26 -9 66 15 63 38 -4 28 -35 33 -43 6 -7 -22 -26 -23 -33
-2 -4 14 34 32 63 29 13 -1 21 -12 26 -34z m69 7 c0 -5 -4 -10 -10 -10 -5 0
-10 5 -10 10 0 6 5 10 10 10 6 0 10 -4 10 -10z m1470 -4 c0 -2 -9 -6 -20 -9
-11 -3 -18 -1 -14 4 5 9 34 13 34 5z m-1390 -10 c0 -2 -9 -6 -20 -9 -11 -3
-20 -1 -20 4 0 5 9 9 20 9 11 0 20 -2 20 -4z m1313 -118 c4 -62 7 -143 7 -179
0 -82 11 -94 78 -86 119 15 583 89 634 101 32 7 60 11 63 8 9 -9 5 -41 -6 -48
-15 -9 -162 -41 -233 -49 -84 -11 -100 -30 -92 -108 3 -33 6 -121 6 -197 0
-185 -8 -177 156 -155 71 9 136 17 144 18 17 2 27 -40 13 -54 -9 -9 -308 -59
-438 -74 -102 -11 -288 -55 -306 -71 -15 -14 -17 -31 -13 -127 3 -62 9 -141
13 -177 5 -36 9 -87 10 -115 1 -27 6 -54 11 -59 9 -9 142 5 325 33 33 5 121
17 195 26 74 9 147 18 163 21 26 5 27 4 27 -33 l0 -40 -112 -16 c-86 -13 -117
-22 -129 -37 -14 -17 -16 -45 -12 -222 3 -112 8 -216 12 -233 7 -27 11 -30 47
-30 21 1 72 4 112 9 l72 8 0 -26 c0 -15 -6 -28 -12 -30 -7 -2 -76 -11 -153
-21 -77 -9 -192 -26 -255 -37 -63 -11 -151 -23 -195 -28 -148 -15 -269 -40
-288 -59 -23 -22 -23 -11 0 -309 15 -182 23 -246 34 -253 22 -16 419 14 419
31 0 4 -12 5 -27 4 -211 -23 -371 -30 -383 -18 -4 5 -10 54 -14 110 -3 55 -11
156 -16 225 -13 138 -8 184 19 199 15 8 20 5 26 -13 l8 -22 4 23 c3 15 12 22
27 22 30 0 48 -21 36 -40 -14 -21 -12 -42 3 -37 6 2 17 -3 23 -11 9 -13 14
-12 32 6 28 28 28 39 1 38 -12 -1 -24 5 -26 12 -3 8 9 12 44 12 53 0 79 15 62
36 -12 14 66 33 246 59 61 8 169 24 240 34 72 10 132 18 135 16 3 -2 3 -137 0
-301 l-5 -297 -45 -3 c-55 -5 -296 -34 -329 -40 -13 -3 -21 -7 -18 -10 4 -4
292 18 377 29 10 1 16 -8 18 -29 l3 -30 -75 -12 c-100 -15 -224 -44 -211 -49
6 -2 69 5 140 16 72 10 132 17 133 16 8 -7 1 -304 -7 -331 -15 -50 -31 -78
-57 -97 -25 -18 -137 -47 -186 -47 -33 0 -32 -5 -30 260 0 124 -1 146 -9 110
-6 -25 -8 -120 -6 -212 l4 -168 -39 0 -40 0 7 149 c7 144 1 281 -13 281 -4 0
-6 -96 -4 -214 l3 -214 -48 -6 c-26 -3 -91 -8 -143 -11 -92 -5 -308 -22 -400
-30 -185 -17 -502 -36 -508 -31 -8 8 -9 392 -1 400 7 7 122 22 279 36 69 6
181 20 250 31 141 23 403 48 498 49 45 0 61 3 56 11 -5 8 -33 10 -93 6 -273
-20 -358 -29 -419 -42 -37 -7 -115 -19 -172 -25 -241 -26 -376 -39 -385 -40
-6 0 -19 -14 -29 -32 -17 -28 -18 -46 -12 -205 3 -95 7 -179 9 -186 1 -8 -13
-13 -40 -15 l-43 -3 0 48 c0 132 -14 350 -22 367 -10 18 -19 18 -122 12 -61
-4 -122 -8 -136 -10 -14 -2 -83 -9 -155 -15 -71 -7 -177 -17 -235 -22 -58 -5
-148 -12 -200 -15 -146 -8 -239 -21 -255 -34 -25 -21 -18 -409 7 -394 5 3 7
12 4 19 -3 8 -6 94 -7 192 l-2 178 54 7 c29 3 103 9 164 13 60 3 121 8 135 10
14 2 95 8 180 15 85 6 189 15 230 21 41 6 132 13 202 16 l127 6 5 -34 c3 -19
7 -111 9 -206 l3 -172 -45 -5 c-52 -6 -101 -10 -366 -31 -235 -18 -289 -22
-490 -35 -88 -5 -190 -13 -227 -16 l-68 -7 -1 89 c0 49 0 127 0 173 -1 95 -9
125 -39 141 -24 13 -340 3 -340 -11 0 -4 73 -5 163 -2 127 4 166 2 179 -8 14
-12 17 -39 20 -197 l3 -182 -40 -1 c-22 0 -66 -3 -97 -5 -71 -6 -204 11 -234
31 -21 13 -22 20 -23 230 -1 165 2 217 11 220 7 2 60 7 118 9 58 3 159 8 225
11 66 4 168 13 228 21 59 8 111 13 115 12 4 -1 68 2 142 6 254 14 263 17 264
78 0 133 -15 461 -24 482 -5 14 -15 26 -22 27 -7 0 -24 2 -38 4 -14 2 -61 -1
-105 -6 -44 -6 -125 -14 -180 -19 -55 -6 -176 -19 -270 -30 -305 -36 -339 -40
-407 -45 l-66 -6 -1 98 c-1 183 -13 321 -27 327 -8 3 -14 0 -15 -7 0 -7 -4 -1
-10 11 -10 27 -1 52 11 32 6 -9 10 -6 14 8 8 24 2 22 221 52 83 11 160 22 171
25 21 5 22 2 29 -184 4 -103 4 -198 0 -209 -8 -27 -46 -37 -185 -52 -170 -17
-190 -21 -190 -31 0 -5 15 -7 33 -4 123 18 202 27 264 32 104 7 106 11 92 252
-5 102 -12 192 -15 200 -3 9 -14 11 -37 7 -17 -3 -54 -8 -82 -11 -27 -4 -92
-13 -142 -21 -51 -8 -110 -14 -130 -14 -33 0 -212 43 -353 85 -93 27 -198 48
-214 42 -12 -5 -16 -20 -16 -61 0 -67 -7 -86 -31 -86 -17 0 -19 8 -19 85 0 97
5 91 -109 123 -83 24 -86 25 -78 46 5 11 13 13 39 5 18 -5 87 -20 153 -35 66
-14 151 -34 190 -45 77 -21 150 -25 160 -8 9 13 18 386 11 415 -5 19 -21 26
-95 43 -49 12 -129 28 -177 36 -49 9 -137 27 -196 41 -100 24 -108 27 -108 50
0 29 0 29 104 7 110 -23 116 -19 116 62 0 63 1 66 22 63 20 -3 22 -8 20 -46
-5 -65 6 -102 34 -112 21 -8 371 -83 457 -98 22 -3 27 -9 27 -33 0 -33 -8 -35
-79 -18 -71 16 -71 16 -71 -222 0 -238 -8 -219 97 -242 52 -12 59 -17 69 -45
10 -33 24 -33 24 0 0 10 3 18 8 19 4 0 21 2 37 4 69 7 289 36 294 39 3 2 29 7
56 10 179 23 330 54 270 55 -30 1 -262 -31 -360 -49 -73 -13 -288 -41 -291
-37 -1 1 -3 97 -5 212 l-4 210 215 37 c118 20 280 46 360 58 175 25 376 58
410 66 24 6 24 5 -4 -14 -56 -39 -86 -115 -51 -129 9 -3 42 9 75 26 55 29 65
31 119 25 l59 -6 4 -70 c2 -38 2 -71 0 -73 -2 -1 -18 1 -37 5 -49 11 -111 -3
-158 -36 -117 -84 -148 -307 -61 -446 51 -82 109 -118 191 -118 91 1 164 53
205 149 20 48 39 189 26 197 -4 3 -8 21 -8 40 0 32 2 34 35 34 19 0 35 5 35
10 0 9 -26 7 -66 -5 -21 -6 -43 78 -48 185 -9 182 -9 251 0 260 5 5 79 21 164
35 294 50 505 84 565 90 33 3 108 15 168 26 59 11 131 21 159 22 51 2 53 1 59
-28 4 -16 7 -72 8 -124 l1 -94 -20 25 c-27 35 -101 68 -151 68 -36 0 -41 2
-36 20 6 25 -44 70 -79 70 -36 0 -76 -23 -113 -65 -35 -40 -39 -73 -16 -128
12 -29 23 -38 52 -46 69 -18 88 -18 85 1 -2 12 10 19 48 27 68 15 73 14 127
-11 26 -12 61 -22 79 -22 l32 0 0 -74 c1 -89 -10 -97 -79 -59 -118 67 -272 4
-319 -130 -10 -26 -22 -47 -27 -46 -26 5 -278 -38 -285 -49 -4 -7 -8 -101 -7
-208 l1 -195 -34 0 -33 0 -7 85 c-3 47 -6 129 -7 183 -1 53 -4 97 -8 97 -8 0
-7 -143 0 -282 2 -38 0 -68 -5 -68 -15 0 -78 54 -78 68 0 6 -9 12 -20 12 -15
0 -20 -7 -20 -28 0 -32 57 -94 103 -111 58 -22 26 -30 -233 -61 -52 -6 -124
-15 -160 -19 -65 -8 -65 -9 -15 -10 70 -1 272 15 360 30 59 9 76 16 81 31 5
17 13 19 47 15 23 -3 54 -8 70 -12 22 -6 26 -4 22 8 -4 9 2 16 17 20 39 10
108 84 108 116 0 51 -48 44 -65 -9 -7 -21 -63 -60 -87 -60 -21 0 -36 366 -16
386 11 10 203 44 252 44 11 0 14 -19 14 -83 1 -99 25 -174 77 -234 44 -51 90
-73 154 -73 62 0 106 17 145 56 92 92 123 224 90 377 -6 26 -5 27 38 27 25 0
69 4 99 10 30 5 110 19 177 31 69 12 127 17 132 13 11 -11 25 -216 25 -359 l0
-109 -150 -23 c-82 -13 -179 -22 -215 -22 -36 1 -76 -3 -90 -8 -23 -9 -66 -6
-56 4 3 3 -2 12 -10 21 -11 11 -18 12 -27 3 -8 -8 -8 -11 1 -11 7 0 12 -7 12
-15 0 -8 -9 -15 -20 -15 -14 0 -18 5 -13 17 7 18 0 15 -47 -18 -19 -14 -89
-26 -275 -49 -137 -18 -252 -34 -254 -36 -9 -9 77 -3 232 16 89 11 196 22 237
25 103 7 318 34 360 45 19 5 93 16 165 25 71 10 138 21 147 26 16 8 18 25 18
127 0 123 -15 328 -26 357 -8 20 -56 18 -214 -10 -52 -9 -126 -20 -165 -24
-38 -4 -76 -10 -83 -12 -8 -2 -25 13 -38 34 l-24 37 25 10 c24 9 25 13 25 87
0 98 -17 351 -26 380 -10 34 -49 36 -215 9 -85 -14 -235 -37 -334 -51 -99 -15
-216 -33 -260 -41 -44 -8 -132 -24 -195 -35 -69 -12 -122 -27 -134 -37 -17
-16 -18 -28 -11 -184 3 -93 4 -168 0 -168 -3 0 -21 12 -40 27 -33 27 -34 28
-34 110 0 65 3 85 14 90 21 8 18 37 -5 58 -11 10 -20 24 -20 32 0 7 -12 18
-27 24 -22 8 -67 3 -203 -21 -96 -17 -193 -35 -214 -40 -22 -5 -43 -7 -47 -4
-10 6 -316 -43 -629 -101 -36 -7 -68 -10 -72 -8 -5 2 -8 16 -8 31 l0 27 148
23 c81 13 181 32 222 42 41 10 91 21 111 24 58 10 60 18 50 162 -5 71 -12 137
-16 146 -5 11 2 22 20 34 14 9 28 14 31 12 3 -3 7 -30 9 -59 2 -30 7 -90 10
-134 8 -96 11 -112 30 -119 11 -4 12 0 5 19 -5 14 -12 88 -15 164 l-6 139 30
7 c16 3 35 13 42 21 6 8 20 14 30 14 10 0 34 9 54 20 19 11 36 19 38 19 4 -1
62 25 67 31 19 21 97 39 85 20 -3 -5 1 -10 9 -10 22 0 20 -9 -6 -37 -12 -13
-16 -23 -10 -23 7 0 12 5 12 10 0 6 6 10 14 10 7 0 16 11 18 25 4 17 1 25 -8
25 -8 0 -14 5 -14 10 0 6 9 10 20 10 11 0 20 -4 20 -10 0 -5 8 -10 18 -10 13
0 14 2 3 9 -23 15 4 22 97 26 48 3 89 5 92 6 3 1 13 1 23 0 9 -1 17 2 17 8 0
5 30 12 68 16 37 3 105 15 152 25 127 29 274 50 283 41 10 -10 13 -308 3 -371
-6 -43 -6 -44 8 -20 12 20 15 62 16 198 0 101 -4 181 -10 193 -15 27 -64 25
-283 -11 -100 -16 -220 -34 -267 -40 -47 -6 -114 -15 -150 -20 -35 -5 -65 -8
-67 -7 -1 2 57 31 130 65 73 34 134 57 135 52 7 -21 94 -11 487 55 50 8 160
26 245 40 252 40 389 65 414 74 20 8 24 19 29 72 4 34 7 117 7 185 0 107 2
124 18 133 9 6 20 11 23 11 3 0 9 -51 12 -112z m146 75 c10 -8 11 -12 4 -13
-6 0 -15 5 -18 10 -3 6 -21 10 -38 11 l-32 1 30 13 c22 10 31 10 34 2 2 -7 11
-17 20 -24z m-1569 17 c0 -5 -4 -10 -10 -10 -5 0 -10 5 -10 10 0 6 5 10 10 10
6 0 10 -4 10 -10z m-110 -34 c0 -3 -4 -8 -10 -11 -5 -3 -10 -1 -10 4 0 6 5 11
10 11 6 0 10 -2 10 -4z m1449 -53 c-1 -44 -3 -52 -9 -33 l-8 25 -1 -27 c-1
-18 -7 -28 -16 -28 -8 0 -15 5 -15 11 0 6 -12 10 -27 9 -54 -4 -90 18 -61 36
6 4 8 3 5 -3 -8 -13 26 -23 43 -13 9 5 6 10 -10 15 -20 6 -16 10 36 35 32 16
60 29 62 29 1 1 2 -25 1 -56z m-1429 22 c-33 -19 -49 -19 -24 0 10 8 26 14 34
14 9 0 4 -6 -10 -14z m1254 -109 c-5 -13 -9 -14 -20 -5 -11 9 -12 15 -3 26 15
17 32 2 23 -21z m-87 -8 c-8 -5 -7 -8 5 -8 9 0 18 5 20 11 6 17 38 -2 38 -22
0 -12 -7 -19 -19 -19 -11 0 -26 -3 -35 -6 -11 -4 -16 -1 -16 10 0 9 -4 16 -10
16 -5 0 -10 -7 -10 -15 0 -8 -6 -15 -14 -15 -8 0 -20 -15 -27 -32 -7 -18 -15
-37 -17 -41 -2 -5 6 -7 19 -5 16 2 25 12 31 36 8 29 28 46 28 22 0 -5 7 -7 16
-3 9 3 19 0 24 -7 10 -16 45 2 60 30 6 11 16 20 22 20 7 0 6 -5 -2 -15 -21
-26 11 -18 83 19 43 23 67 30 70 23 2 -7 2 -47 -1 -90 -4 -68 -8 -80 -26 -88
-35 -15 -516 -96 -576 -97 -14 0 -45 -3 -70 -8 -41 -7 -44 -6 -31 9 16 20 6
21 -38 6 -21 -8 -29 -14 -21 -19 7 -4 -8 -10 -35 -14 -43 -7 -76 1 -48 11 24
9 -12 31 -40 26 -30 -6 -35 -18 -12 -27 38 -14 6 -30 -90 -41 -11 -2 -38 -6
-60 -10 l-40 -8 27 22 c15 12 33 18 42 15 9 -3 16 -1 16 5 0 15 25 14 50 -1
17 -11 22 -10 29 1 5 8 7 20 4 26 -5 16 63 59 81 52 8 -3 17 1 20 9 3 8 14 14
25 14 11 0 23 5 26 10 7 11 72 43 90 45 6 0 16 4 24 9 8 5 16 3 22 -5 7 -12 9
-12 9 0 0 7 6 11 14 8 8 -3 17 -1 20 6 3 8 11 5 23 -9 20 -24 60 -37 69 -23 3
5 17 9 32 9 19 0 30 8 39 25 6 14 7 25 2 25 -5 0 -9 -6 -9 -12 0 -7 -9 -2 -20
12 -16 22 -22 23 -39 13 -14 -9 -22 -9 -27 -2 -3 6 -4 11 -3 12 2 1 14 8 26
15 26 14 47 16 39 3 -3 -5 15 -9 40 -9 24 -1 49 -4 54 -7 6 -4 5 5 -2 19 -12
29 -28 34 -28 11 0 -8 -5 -15 -11 -15 -5 0 -7 5 -4 10 3 6 -4 10 -17 10 -21 0
-20 2 7 14 17 8 46 20 65 28 19 8 46 19 60 25 27 11 50 -5 27 -19z m127 6 c5
-14 4 -15 -9 -4 -17 14 -19 20 -6 20 5 0 12 -7 15 -16z m64 -6 c-3 -7 -13 -15
-24 -17 -16 -3 -17 -1 -5 13 16 19 34 21 29 4z m-418 -148 c0 -5 -12 -10 -26
-10 -14 0 -23 4 -19 10 3 6 15 10 26 10 10 0 19 -4 19 -10z m1350 -199 c0
-169 -3 -212 -14 -224 -15 -14 -164 -40 -241 -41 l-40 -1 -6 200 c-7 219 -6
224 50 225 19 1 232 42 249 49 1 1 2 -93 2 -208z m-4150 99 c0 -5 -4 -10 -10
-10 -5 0 -10 5 -10 10 0 6 5 10 10 10 6 0 10 -4 10 -10z m-45 -30 c-3 -5 -10
-10 -16 -10 -5 0 -9 5 -9 10 0 6 7 10 16 10 8 0 12 -4 9 -10z m39 -47 c-22
-16 -44 -17 -44 -2 0 7 -10 9 -25 7 -13 -3 -22 -1 -19 3 7 13 38 11 51 -2 15
-15 36 -1 28 18 -5 14 -3 14 11 2 14 -12 14 -14 -2 -26z m603 -49 c-3 -3 -12
-4 -19 -1 -8 3 -5 6 6 6 11 1 17 -2 13 -5z m3537 -556 c-3 -128 -9 -236 -13
-240 -6 -7 -191 -37 -423 -68 -75 -11 -165 -24 -198 -30 -34 -6 -65 -8 -68 -5
-7 6 -30 308 -31 402 -1 52 -1 52 37 62 80 22 181 41 262 51 101 12 277 38
340 49 25 5 58 9 73 10 l28 1 -7 -232z m-2774 168 c0 -13 3 -32 7 -42 4 -12 3
-15 -5 -10 -7 4 -12 18 -12 32 0 13 -5 24 -11 24 -5 0 -7 5 -4 10 11 18 25 10
25 -14z m-45 -5 c-3 -5 2 -16 11 -25 18 -19 11 -36 -17 -36 -14 0 -19 -7 -19
-26 0 -16 -5 -24 -12 -21 -17 5 -11 59 8 73 7 6 14 19 14 28 0 9 5 16 11 16 5
0 8 -4 4 -9z m-51 -23 c-8 -28 -26 -40 -38 -28 -6 6 0 17 15 29 31 26 32 26
23 -1z m-1158 -19 c3 -5 16 -9 30 -9 13 0 24 -5 24 -10 0 -6 -11 -8 -25 -4
-18 4 -25 3 -23 -6 2 -8 -7 -19 -20 -25 -19 -10 -20 -13 -7 -19 13 -4 14 -10
5 -26 -19 -36 -35 -16 -40 51 l-5 65 28 -4 c15 -2 30 -8 33 -13z m1094 -9 c0
-5 -4 -10 -10 -10 -5 0 -10 5 -10 10 0 6 5 10 10 10 6 0 10 -4 10 -10z m-997
-37 c-5 -12 -7 -12 -14 -1 -13 20 -11 28 5 22 8 -3 12 -12 9 -21z m947 -18 c7
-4 17 -2 23 4 6 6 18 11 27 10 10 0 9 -3 -5 -9 -17 -7 -17 -9 -2 -9 9 -1 17
-5 17 -10 0 -5 10 -11 21 -14 15 -4 20 -11 16 -21 -5 -12 0 -16 15 -16 17 0
19 3 10 12 -19 19 -15 49 6 41 9 -4 21 -13 25 -20 5 -7 13 -11 18 -7 6 3 5 12
-3 22 -11 13 -10 15 5 9 19 -7 24 9 5 16 -8 3 -6 6 5 6 9 1 17 -6 17 -14 0 -8
6 -15 14 -15 16 0 26 -30 26 -78 0 -39 -8 -43 -145 -71 -218 -44 -253 -46
-241 -15 3 8 -1 14 -9 14 -8 0 -15 9 -15 20 0 13 7 20 20 20 11 0 20 7 20 15
0 8 4 15 10 15 5 0 7 6 4 14 -3 8 -12 12 -20 9 -19 -7 -18 5 2 25 9 9 31 15
50 15 23 -1 34 4 34 13 0 8 -2 14 -4 14 -2 0 -13 3 -23 6 -15 5 -15 4 -3 -5
12 -9 11 -11 -7 -11 -35 0 -27 13 20 35 38 18 43 19 49 4 4 -10 12 -20 18 -24z
m-130 -13 c0 -10 -50 -35 -57 -28 -3 3 29 24 55 35 1 1 2 -3 2 -7z m-80 -112
c0 -5 -5 -10 -11 -10 -5 0 -7 5 -4 10 3 6 8 10 11 10 2 0 4 -4 4 -10z m-263
-6 c-3 -3 -12 -4 -19 -1 -8 3 -5 6 6 6 11 1 17 -2 13 -5z m135 -40 c-2 -16 -1
-16 7 -4 11 16 27 7 16 -9 -10 -18 -43 -13 -55 8 -7 14 -6 21 3 24 20 9 32 1
29 -19z m78 2 c-37 -14 -54 -11 -30 4 8 6 26 9 40 9 22 0 21 -2 -10 -13z
m-681 -35 c19 -12 6 -41 -19 -41 -12 0 -18 5 -15 10 4 6 -12 10 -39 10 -43 0
-55 7 -39 23 9 10 96 8 112 -2z m127 -30 c22 -6 22 -6 -4 -25 -25 -19 -25 -19
-20 2 7 24 1 27 -22 12 -10 -6 -11 -10 -2 -10 6 0 12 -4 12 -10 0 -5 -9 -10
-20 -10 -23 0 -26 -26 -6 -53 7 -9 11 -28 9 -41 -4 -18 0 -26 15 -30 11 -4 23
-13 26 -21 3 -8 15 -15 26 -15 12 0 18 -4 15 -10 -3 -5 -17 -10 -31 -10 -22 0
-24 -3 -18 -22 10 -33 14 -35 29 -15 20 27 44 17 69 -28 11 -22 24 -41 29 -43
13 -7 7 -32 -8 -32 -9 0 -18 -7 -21 -15 -5 -11 -19 -14 -59 -11 -29 2 -58 7
-64 10 -13 9 -2 38 13 33 22 -9 48 20 41 43 -5 17 -9 19 -21 9 -8 -7 -12 -19
-9 -27 3 -10 0 -12 -10 -9 -8 4 -21 0 -29 -8 -16 -16 -27 -19 -25 -7 6 35 -12
40 -68 20 -43 -16 -48 -8 -22 36 18 31 19 36 5 36 -12 0 -15 6 -10 25 4 15 2
25 -5 25 -6 0 -11 -5 -11 -11 0 -6 -6 -17 -14 -24 -12 -12 -15 -11 -20 8 -9
34 -7 95 3 102 6 3 12 -12 14 -32 3 -33 4 -31 5 12 2 45 0 51 -19 52 -20 2
-20 -2 -18 -112 2 -63 1 -117 -2 -120 -9 -9 -18 110 -16 220 l2 100 30 3 c19
2 25 0 17 -6 -9 -6 -10 -15 -3 -33 l10 -24 1 25 1 25 10 -25 c10 -23 11 -24
23 -7 15 20 27 22 24 5 -2 -7 4 -13 12 -13 9 0 14 7 12 19 -2 10 5 26 15 36
18 17 49 17 109 1z m71 -22 c6 -6 8 -23 3 -44 -6 -26 -5 -32 6 -28 8 3 22 -1
31 -8 14 -13 16 -11 11 14 -5 24 -3 27 24 27 24 0 29 -3 24 -16 -5 -14 -1 -16
31 -11 33 5 35 4 13 -5 -84 -34 -90 -38 -83 -54 5 -14 -1 -16 -40 -13 -35 3
-47 1 -47 -9 0 -8 -6 -12 -12 -9 -13 4 -12 48 1 57 4 3 10 12 13 20 5 13 -1
15 -29 12 -30 -4 -34 -2 -31 14 3 14 12 19 36 19 29 0 33 3 29 22 -5 25 3 29
20 12z m123 -172 c0 -21 -12 -28 -27 -16 -19 16 -16 29 7 29 11 0 20 -6 20
-13z m2641 2 c47 -16 98 -66 121 -119 29 -67 27 -194 -5 -264 -66 -144 -204
-181 -298 -79 -126 135 -81 402 78 458 47 17 61 18 104 4z m947 -236 l-3 -237
-90 -12 c-50 -7 -97 -14 -105 -16 -13 -3 -16 33 -22 232 -4 129 -5 236 -3 238
4 4 169 28 208 31 16 1 17 -15 15 -236z m-3538 217 c0 -5 -4 -10 -10 -10 -5 0
-10 5 -10 10 0 6 5 10 10 10 6 0 10 -4 10 -10z m1499 -28 c83 -56 117 -139
107 -261 -13 -157 -124 -260 -240 -221 -50 16 -112 88 -130 151 -43 144 2 288
109 347 39 22 109 14 154 -16z m-1553 -5 c4 -4 -2 -7 -14 -7 -11 0 -24 -5 -28
-11 -4 -7 -9 -8 -17 0 -7 7 -14 5 -24 -7 -13 -16 -14 -16 -11 3 2 11 11 20 20
20 9 0 20 3 24 7 8 9 40 5 50 -5z m-409 -49 c-3 -8 -6 -5 -6 6 -1 11 2 17 5
13 3 -3 4 -12 1 -19z m373 8 c0 -2 3 -11 6 -20 4 -12 0 -16 -15 -16 -14 0 -21
6 -21 20 0 11 7 20 15 20 8 0 15 -2 15 -4z m90 -37 c0 -17 -3 -19 -14 -10 -7
6 -21 9 -30 5 -9 -3 -16 -1 -16 6 0 6 5 8 10 5 6 -3 10 -1 10 4 0 6 9 11 20
11 14 0 20 -7 20 -21z m-375 -29 c3 -5 -1 -10 -9 -10 -8 0 -18 5 -21 10 -3 6
1 10 9 10 8 0 18 -4 21 -10z m319 -50 c13 -13 -3 -30 -29 -30 -15 0 -26 7 -30
21 -6 17 -9 18 -16 8 -4 -7 -11 -10 -14 -7 -24 24 63 31 89 8z m63 -42 c-3 -8
-6 -5 -6 6 -1 11 2 17 5 13 3 -3 4 -12 1 -19z m-460 -14 c5 -13 7 -13 14 -2 7
10 12 9 26 -5 16 -15 16 -19 3 -27 -8 -5 -21 -8 -27 -5 -8 2 -13 -4 -13 -15 0
-28 12 -25 46 10 48 49 55 42 53 -60 -2 -85 -4 -91 -26 -96 -13 -4 -23 -10
-23 -15 0 -14 -28 -11 -34 4 -3 6 -4 -1 0 -18 5 -28 4 -29 -9 -10 -8 10 -13
25 -10 32 3 7 -2 13 -11 13 -20 0 -21 -24 0 -44 8 -9 10 -16 4 -16 -6 0 -15
-10 -20 -22 -6 -16 -9 11 -9 88 -1 61 -4 132 -7 158 -6 42 -5 46 15 46 12 0
24 -7 28 -16z m260 -64 c14 0 14 -2 0 -18 -10 -10 -17 -27 -16 -38 1 -15 3
-14 9 6 4 14 8 19 9 13 1 -7 7 -13 14 -13 7 0 14 -9 15 -20 1 -11 3 -29 4 -40
1 -11 6 -20 10 -20 12 0 10 -38 -2 -45 -6 -4 -8 -11 -4 -16 3 -5 10 -6 16 -3
6 4 14 0 19 -7 13 -20 11 -29 -6 -29 -8 0 -15 -6 -15 -14 0 -8 -5 -18 -11 -22
-7 -4 -10 4 -8 22 3 37 -18 81 -55 119 -34 33 -40 53 -24 72 5 7 7 25 4 39 -6
22 -4 25 9 20 9 -3 24 -6 32 -6z m91 -32 c2 -4 16 -8 30 -8 26 -1 62 -20 62
-34 0 -3 -7 -6 -15 -6 -8 0 -15 7 -15 15 0 10 -10 15 -34 15 -19 0 -38 5 -41
10 -4 6 -14 10 -23 9 -31 -3 -43 1 -37 11 7 11 68 1 73 -12z m138 -73 c-6 -17
-42 -20 -51 -5 -4 6 5 10 19 10 18 0 26 6 27 18 0 10 2 12 6 4 3 -7 2 -19 -1
-27z m-76 2 c0 -11 -51 -37 -73 -37 -19 0 -4 28 21 37 38 15 52 15 52 0z m230
-18 c0 -11 -4 -18 -10 -14 -5 3 -7 12 -3 20 7 21 13 19 13 -6z m70 -108 c0 -5
-7 -11 -15 -15 -15 -5 -20 5 -8 17 9 10 23 9 23 -2z m-323 -53 c-3 -8 -6 -5
-6 6 -1 11 2 17 5 13 3 -3 4 -12 1 -19z m-45 -10 c-7 -7 -12 -8 -12 -2 0 6 3
14 7 17 3 4 9 5 12 2 2 -3 -1 -11 -7 -17z m-45 -20 c-3 -8 -6 -5 -6 6 -1 11 2
17 5 13 3 -3 4 -12 1 -19z m318 -8 c3 -5 1 -10 -4 -10 -6 0 -11 5 -11 10 0 6
2 10 4 10 3 0 8 -4 11 -10z m-294 -48 c30 -11 90 -31 134 -46 44 -15 100 -34
125 -42 25 -9 66 -22 93 -30 42 -13 47 -18 47 -44 0 -17 -4 -30 -10 -30 -5 0
-44 11 -86 25 -91 30 -110 31 -119 8 -4 -10 -9 -124 -11 -253 -6 -279 -15
-259 136 -313 91 -33 95 -35 98 -66 4 -37 -5 -39 -67 -11 -24 11 -48 20 -53
20 -8 0 -56 19 -183 75 -59 25 -161 63 -202 76 -69 20 -73 11 -73 -150 -1
-133 -1 -135 -18 -106 -12 22 -18 64 -22 151 -4 78 -10 127 -19 137 -7 9 -39
26 -72 39 -51 20 -59 26 -59 49 0 36 7 40 44 25 17 -8 108 -43 201 -80 162
-63 217 -77 229 -57 4 5 9 115 12 245 l6 237 -30 27 c-16 15 -53 35 -83 45
-113 38 -110 36 -92 63 8 13 16 24 18 24 1 0 26 -8 56 -18z m2936 2 c-3 -3
-12 -4 -19 -1 -8 3 -5 6 6 6 11 1 17 -2 13 -5z m-2739 -30 c-4 -3 -17 -2 -30
2 -22 7 -22 7 -3 14 20 8 44 -4 33 -16z m76 -3 c3 -5 -3 -11 -14 -14 -20 -5
-26 3 -13 16 9 10 21 9 27 -2z m1247 -182 c4 -30 9 -143 13 -252 l6 -198 -23
-8 c-12 -5 -94 -14 -182 -20 -88 -7 -223 -18 -300 -26 -77 -8 -178 -17 -225
-20 -112 -7 -299 -18 -330 -19 -24 -1 -25 1 -26 69 -1 39 -3 153 -5 255 l-4
185 50 2 c28 2 82 7 120 13 39 5 95 12 125 15 260 24 374 36 425 45 33 5 111
12 174 15 63 3 116 7 118 9 3 2 16 1 31 -3 24 -7 28 -14 33 -62z m-1852 -420
c-15 -9 -32 -2 -24 11 3 5 13 6 21 3 12 -4 13 -8 3 -14z m81 -17 c0 -4 -9 -8
-20 -8 -11 0 -20 4 -20 8 0 4 9 8 20 8 11 0 20 -4 20 -8z m-60 -22 c0 -5 -2
-10 -4 -10 -3 0 -8 5 -11 10 -3 6 -1 10 4 10 6 0 11 -4 11 -10z m-20 -30 c0
-5 -4 -10 -10 -10 -5 0 -10 5 -10 10 0 6 5 10 10 10 6 0 10 -4 10 -10z m40
-14 c0 -11 -19 -15 -25 -6 -3 5 1 10 9 10 9 0 16 -2 16 -4z m427 -82 c-3 -3
-12 -4 -19 -1 -8 3 -5 6 6 6 11 1 17 -2 13 -5z m280 -410 c-3 -3 -12 -4 -19
-1 -8 3 -5 6 6 6 11 1 17 -2 13 -5z"/>
<path d="M5055 7370 c3 -5 8 -10 11 -10 2 0 4 5 4 10 0 6 -5 10 -11 10 -5 0
-7 -4 -4 -10z"/>
<path d="M5885 7289 c-10 -15 3 -25 16 -12 7 7 7 13 1 17 -6 3 -14 1 -17 -5z"/>
<path d="M4282 7053 c-8 -8 -9 -13 -2 -13 10 0 13 -116 3 -133 -2 -4 -18 6
-34 23 -39 39 -99 45 -129 13 -14 -14 -12 -15 22 -10 21 3 40 1 44 -4 3 -6 17
-8 30 -5 19 5 24 2 24 -14 0 -11 5 -20 11 -20 6 0 3 -7 -5 -16 -18 -18 -20
-30 -6 -39 6 -3 10 -2 10 4 0 6 16 27 36 47 36 36 37 37 26 82 -6 26 -7 53 -2
62 11 22 -12 41 -28 23z"/>
<path d="M4760 7025 c0 -15 4 -24 10 -20 6 3 10 12 10 20 0 8 -4 17 -10 20 -6
4 -10 -5 -10 -20z"/>
<path d="M4256 7021 c-4 -7 -5 -15 -2 -18 9 -9 19 4 14 18 -4 11 -6 11 -12 0z"/>
<path d="M4324 6998 c3 -13 6 -29 6 -35 0 -7 5 -13 10 -13 6 0 10 16 10 35 0
26 -4 35 -16 35 -12 0 -15 -6 -10 -22z"/>
<path d="M4730 7010 c0 -5 5 -10 11 -10 5 0 7 5 4 10 -3 6 -8 10 -11 10 -2 0
-4 -4 -4 -10z"/>
<path d="M4690 6953 c-10 -12 -22 -23 -26 -23 -5 0 -10 -11 -10 -25 -2 -28 4
-30 40 -14 21 10 24 17 19 40 -4 22 -2 29 11 29 9 0 16 4 16 8 0 17 -32 8 -50
-15z"/>
<path d="M4160 6910 c0 -5 5 -10 10 -10 6 0 10 5 10 10 0 6 -4 10 -10 10 -5 0
-10 -4 -10 -10z"/>
<path d="M4380 6898 c0 -16 3 -16 20 -6 11 7 20 16 20 20 0 4 -9 6 -20 5 -12
-1 -20 -8 -20 -19z"/>
<path d="M4480 6900 c0 -5 5 -10 10 -10 6 0 10 5 10 10 0 6 -4 10 -10 10 -5 0
-10 -4 -10 -10z"/>
<path d="M4520 6901 c0 -14 18 -23 31 -15 8 4 7 9 -2 15 -18 11 -29 11 -29 0z"/>
<path d="M4160 6870 c20 -13 40 -13 40 0 0 6 -12 10 -27 10 -22 0 -25 -2 -13
-10z"/>
<path d="M4444 6855 c-18 -14 -18 -14 9 -15 17 0 27 5 27 15 0 19 -11 19 -36
0z"/>
<path d="M4295 6810 c-3 -5 1 -10 9 -10 9 0 16 5 16 10 0 6 -4 10 -9 10 -6 0
-13 -4 -16 -10z"/>
<path d="M3456 6777 c-39 -42 -56 -98 -57 -197 -1 -38 -4 -70 -8 -70 -4 0 -18
11 -31 25 -12 13 -39 30 -58 36 -33 11 -37 10 -60 -16 -21 -25 -23 -35 -18
-74 7 -53 44 -137 82 -186 19 -26 34 -35 55 -35 39 0 37 22 -5 66 -43 45 -76
113 -76 159 0 19 2 35 5 35 20 0 79 -53 102 -92 31 -52 49 -64 68 -48 10 8 11
20 4 43 -12 43 -11 185 2 244 21 100 59 107 92 18 13 -35 18 -77 18 -161 0
-106 1 -114 19 -114 22 0 40 28 40 60 0 30 82 115 104 107 25 -10 20 -41 -20
-123 -30 -61 -34 -77 -24 -89 20 -24 48 -18 64 13 27 53 56 137 56 164 0 86
-72 113 -152 57 -35 -25 -38 -24 -38 14 0 44 -37 151 -58 170 -9 9 -29 19 -45
22 -23 6 -33 2 -61 -28z"/>
<path d="M2694 6424 c3 -9 6 -20 6 -25 0 -6 4 -8 9 -5 12 8 2 46 -11 46 -6 0
-7 -7 -4 -16z"/>
<path d="M2765 6430 c3 -5 12 -7 20 -3 21 7 19 13 -6 13 -11 0 -18 -4 -14 -10z"/>
<path d="M2765 6350 c3 -5 8 -10 11 -10 2 0 4 5 4 10 0 6 -5 10 -11 10 -5 0
-7 -4 -4 -10z"/>
<path d="M2995 6331 c-17 -7 -15 -9 12 -13 26 -4 30 -2 22 9 -7 7 -12 13 -13
12 0 0 -10 -4 -21 -8z"/>
<path d="M2960 6310 c0 -17 37 -53 48 -46 19 12 14 24 -18 40 -16 8 -30 11
-30 6z"/>
<path d="M3786 6306 c3 -9 11 -16 16 -16 13 0 5 23 -10 28 -7 2 -10 -2 -6 -12z"/>
<path d="M2855 6290 c3 -5 8 -10 11 -10 2 0 4 5 4 10 0 6 -5 10 -11 10 -5 0
-7 -4 -4 -10z"/>
<path d="M3050 6290 c0 -5 5 -10 10 -10 6 0 10 5 10 10 0 6 -4 10 -10 10 -5 0
-10 -4 -10 -10z"/>
<path d="M3086 6264 c-9 -22 -8 -24 9 -24 8 0 15 6 15 14 0 22 -17 28 -24 10z"/>
<path d="M2875 6260 c-10 -16 7 -31 23 -21 10 6 10 10 -2 20 -10 9 -16 9 -21
1z"/>
<path d="M3020 6240 c0 -5 -7 -10 -15 -10 -9 0 -15 -9 -15 -25 0 -25 1 -25 25
-9 14 9 25 22 25 29 0 7 6 16 13 18 6 3 2 6 -10 6 -13 1 -23 -3 -23 -9z"/>
<path d="M2842 6213 c2 -10 12 -19 23 -22 16 -3 17 -1 7 11 -6 8 -9 18 -5 21
3 4 -1 7 -11 7 -11 0 -16 -6 -14 -17z"/>
<path d="M3185 6211 c-3 -5 -1 -12 5 -16 5 -3 10 1 10 9 0 18 -6 21 -15 7z"/>
<path d="M2900 6200 c0 -5 5 -10 10 -10 6 0 10 5 10 10 0 6 -4 10 -10 10 -5 0
-10 -4 -10 -10z"/>
<path d="M3120 6200 c0 -5 9 -10 20 -10 11 0 20 5 20 10 0 6 -9 10 -20 10 -11
0 -20 -4 -20 -10z"/>
<path d="M3115 6170 c-3 -5 -1 -10 4 -10 6 0 11 5 11 10 0 6 -2 10 -4 10 -3 0
-8 -4 -11 -10z"/>
<path d="M3488 6163 c7 -3 16 -2 19 1 4 3 -2 6 -13 5 -11 0 -14 -3 -6 -6z"/>
<path d="M5920 7070 c-14 -4 -106 -44 -205 -89 -99 -46 -205 -94 -235 -108
-30 -14 -82 -38 -115 -54 -68 -32 -484 -225 -587 -271 -61 -28 -90 -58 -55
-58 10 0 179 71 262 110 11 5 65 29 120 54 84 37 196 87 280 126 11 5 54 25
95 43 73 34 321 152 428 204 28 15 52 30 52 34 0 13 -14 16 -40 9z"/>
<path d="M3050 6040 c0 -5 5 -10 11 -10 5 0 7 5 4 10 -3 6 -8 10 -11 10 -2 0
-4 -4 -4 -10z"/>
<path d="M6700 6940 c0 -5 5 -10 11 -10 5 0 7 5 4 10 -3 6 -8 10 -11 10 -2 0
-4 -4 -4 -10z"/>
<path d="M6520 6866 c0 -8 5 -16 12 -18 17 -6 21 -48 4 -48 -9 0 -12 -7 -9
-21 5 -16 11 -19 32 -14 14 4 26 7 26 8 9 30 28 57 41 57 9 0 14 7 12 18 -2
10 -12 17 -25 17 -12 0 -25 3 -29 8 -13 13 -64 8 -64 -7z"/>
<path d="M6670 6845 c0 -9 9 -15 21 -15 18 0 19 2 9 15 -7 8 -16 15 -21 15 -5
0 -9 -7 -9 -15z"/>
<path d="M6400 6786 c0 -7 6 -19 14 -25 19 -16 32 5 16 24 -16 19 -30 19 -30
1z"/>
<path d="M6295 6770 c-3 -5 1 -10 9 -10 9 0 16 -8 16 -19 0 -10 8 -21 18 -23
15 -4 18 -1 14 18 -2 13 -11 24 -18 24 -8 0 -14 5 -14 10 0 6 -4 10 -9 10 -6
0 -13 -4 -16 -10z"/>
<path d="M6463 6742 c-3 -7 -2 -16 2 -20 4 -4 10 -1 12 6 3 6 11 12 19 12 8 0
14 4 14 8 0 13 -42 8 -47 -6z"/>
<path d="M6286 6712 c-7 -12 22 -38 31 -28 4 3 0 14 -9 22 -9 10 -18 12 -22 6z"/>
<path d="M6527 6702 c-31 -34 -14 -72 30 -72 30 0 46 31 33 64 -11 31 -40 34
-63 8z"/>
<path d="M6613 6614 c-18 -8 -16 -63 1 -70 27 -10 57 15 54 44 -3 27 -27 38
-55 26z m41 -30 c8 -22 8 -26 -4 -19 -5 3 -10 1 -10 -5 0 -6 -5 -8 -11 -4 -8
5 -8 9 1 14 7 4 9 13 6 19 -4 6 -3 11 2 11 6 0 13 -7 16 -16z"/>
<path d="M6440 6590 c0 -5 5 -10 10 -10 6 0 10 5 10 10 0 6 -4 10 -10 10 -5 0
-10 -4 -10 -10z"/>
<path d="M6319 6276 c-2 -2 -31 -6 -64 -10 -98 -9 -297 -43 -510 -85 -110 -21
-226 -42 -259 -46 -91 -12 -96 -21 -95 -167 1 -158 11 -274 26 -289 15 -15
231 13 488 61 88 17 214 39 280 50 66 11 149 26 185 33 l65 12 0 180 c0 156
-3 186 -19 223 -17 38 -22 42 -56 42 -20 0 -39 -2 -41 -4z m86 -33 c5 -10 10
-105 13 -210 l4 -193 -34 0 c-30 0 -155 -18 -343 -49 -27 -5 -93 -18 -145 -29
-114 -24 -470 -76 -477 -69 -2 3 -7 97 -10 209 l-6 205 102 11 c57 7 151 23
209 36 59 13 166 34 237 45 72 12 180 30 240 40 153 25 201 26 210 4z"/>
<path d="M4780 5962 c-5 -2 -10 -13 -10 -25 0 -17 2 -19 9 -8 5 8 22 20 38 26
l28 12 -27 -1 c-16 0 -32 -2 -38 -4z"/>
<path d="M4366 5881 c-16 -18 -12 -31 10 -31 13 0 26 38 14 45 -4 2 -15 -4
-24 -14z"/>
<path d="M4295 5859 c-4 -6 -5 -13 -2 -16 7 -7 27 6 27 18 0 12 -17 12 -25 -2z"/>
<path d="M4190 5810 c-22 -6 -23 -8 -7 -15 11 -4 23 -3 30 4 15 15 7 19 -23
11z"/>
<path d="M4295 5790 c-3 -5 1 -10 9 -10 9 0 16 5 16 10 0 6 -4 10 -9 10 -6 0
-13 -4 -16 -10z"/>
<path d="M4161 5744 c0 -11 3 -14 6 -6 3 7 2 16 -1 19 -3 4 -6 -2 -5 -13z"/>
<path d="M5205 5640 c-17 -7 -16 -9 10 -9 17 0 37 4 45 9 12 8 10 10 -10 9
-14 0 -34 -4 -45 -9z"/>
<path d="M5030 5609 c-86 -17 -418 -68 -545 -84 -55 -7 -70 -9 -165 -24 -36
-6 -82 -11 -103 -11 -25 0 -36 -4 -31 -11 4 -7 21 -9 48 -4 22 3 73 10 111 15
254 31 412 52 490 65 157 27 309 57 325 66 24 13 -24 9 -130 -12z"/>
<path d="M5501 5446 c-16 -19 -11 -29 8 -17 7 5 12 14 9 21 -3 9 -8 7 -17 -4z"/>
<path d="M3854 5155 c-30 -15 -54 -51 -54 -79 0 -41 120 -87 174 -66 44 16 44
92 0 132 -29 25 -84 31 -120 13z m61 -25 c4 -6 11 -7 17 -4 7 5 8 2 4 -5 -5
-8 -3 -11 7 -9 9 2 15 -1 15 -7 -3 -42 -35 -47 -44 -7 -4 15 -12 30 -18 34 -8
6 -7 8 1 8 6 0 15 -5 18 -10z m75 -54 c0 -3 -4 -8 -10 -11 -5 -3 -10 -1 -10 4
0 6 5 11 10 11 6 0 10 -2 10 -4z m-20 -37 c0 -5 -14 -9 -31 -9 -16 0 -28 3
-26 8 7 10 57 12 57 1z"/>
<path d="M5538 5113 c6 -2 18 -2 25 0 6 3 1 5 -13 5 -14 0 -19 -2 -12 -5z"/>
<path d="M5375 5094 l-70 -13 75 5 c41 3 91 9 110 13 l35 9 -40 0 c-22 -1 -71
-7 -110 -14z"/>
<path d="M5165 5065 c-44 -8 -109 -18 -145 -23 -60 -9 -62 -10 -20 -11 44 -1
290 35 299 44 8 8 -51 4 -134 -10z"/>
<path d="M5093 4963 c9 -2 25 -2 35 0 9 3 1 5 -18 5 -19 0 -27 -2 -17 -5z"/>
<path d="M4960 4953 c-38 -5 -67 -23 -34 -22 10 0 48 6 84 14 54 11 58 13 25
12 -22 0 -56 -2 -75 -4z"/>
<path d="M4215 4859 c-80 -19 -79 -19 65 -2 25 3 63 8 85 13 39 8 39 8 -15 8
-30 0 -91 -9 -135 -19z"/>
<path d="M4075 4830 c-3 -5 -2 -10 4 -10 5 0 13 5 16 10 3 6 2 10 -4 10 -5 0
-13 -4 -16 -10z"/>
<path d="M4027 4603 c2 -93 6 -178 8 -190 6 -27 45 -36 105 -24 l45 9 -66 1
-66 1 -6 122 c-4 66 -7 150 -7 185 0 34 -4 63 -8 63 -5 0 -7 -75 -5 -167z"/>
<path d="M5980 4655 c-9 -11 -8 -14 9 -12 22 1 28 12 12 21 -5 3 -14 -1 -21
-9z"/>
<path d="M4379 4628 c-23 -6 -40 -18 -48 -34 -15 -33 -15 -32 17 -28 15 2 20
1 11 -2 -10 -3 -19 -15 -22 -26 -5 -18 -8 -19 -21 -8 -14 11 -16 9 -16 -12 0
-23 3 -25 41 -23 34 2 46 -3 70 -28 16 -17 26 -33 23 -36 -3 -3 -17 7 -30 24
-18 23 -26 27 -36 17 -9 -9 -9 -12 0 -12 7 0 12 -7 12 -15 0 -8 -5 -15 -12
-15 -6 0 -8 3 -5 6 8 9 -32 44 -50 44 -9 0 -7 -6 7 -20 22 -22 26 -40 10 -40
-5 0 -10 -5 -10 -10 0 -13 240 -3 292 12 32 9 36 13 27 30 -5 10 -7 23 -4 28
3 6 1 10 -4 10 -6 0 -11 8 -11 18 0 18 -32 52 -49 52 -5 0 -11 -5 -13 -12 -3
-7 -7 -6 -11 5 -5 13 -1 17 14 17 16 0 18 2 7 14 -9 10 -15 11 -20 2 -5 -7 -8
-5 -8 6 0 10 -16 22 -47 32 -52 18 -62 18 -114 4z m148 -94 c-3 -3 -12 -4 -19
-1 -8 3 -5 6 6 6 11 1 17 -2 13 -5z"/>
<path d="M5615 4474 c-65 -6 -309 -41 -625 -89 -53 -8 -106 -15 -118 -15 -12
0 -22 -4 -22 -8 0 -9 130 2 275 23 55 8 159 24 230 34 72 11 166 22 210 26 44
3 95 8 113 11 45 6 80 -4 86 -24 3 -10 7 -69 10 -132 3 -63 8 -174 12 -246 l6
-132 -34 -11 c-37 -12 -377 -50 -593 -66 -38 -3 -97 -8 -130 -10 -33 -3 -78
-7 -100 -10 -94 -12 -142 -13 -154 -5 -11 6 -16 67 -23 260 -6 138 -7 254 -4
257 3 3 20 9 38 13 32 8 32 8 5 9 -16 1 -38 -4 -49 -10 -20 -11 -20 -16 -14
-193 13 -355 16 -367 84 -360 20 2 109 8 197 14 168 11 215 15 544 55 150 18
209 30 223 42 16 14 18 33 18 153 0 162 -17 391 -30 404 -10 10 -94 16 -155
10z"/>
<path d="M5976 4461 c-4 -5 -2 -12 3 -15 5 -4 12 -2 15 3 4 5 2 12 -3 15 -5 4
-12 2 -15 -3z"/>
<path d="M4217 4399 c8 -8 16 -8 30 0 16 9 14 10 -11 11 -22 0 -27 -3 -19 -11z"/>
<path d="M5928 4393 c7 -3 16 -2 19 1 4 3 -2 6 -13 5 -11 0 -14 -3 -6 -6z"/>
<path d="M5978 4373 c7 -3 16 -2 19 1 4 3 -2 6 -13 5 -11 0 -14 -3 -6 -6z"/>
<path d="M5895 6550 c3 -5 10 -10 16 -10 5 0 9 5 9 10 0 6 -7 10 -16 10 -8 0
-12 -4 -9 -10z"/>
<path d="M5558 6313 c-10 -2 -18 -9 -18 -14 0 -6 8 -5 20 1 11 6 20 13 20 15
0 3 -1 4 -2 4 -2 -1 -11 -3 -20 -6z"/>
<path d="M5263 6284 c-19 -19 -16 -24 12 -24 27 0 32 12 13 28 -9 7 -17 6 -25
-4z"/>
<path d="M5360 6290 c0 -5 5 -10 11 -10 6 0 9 -9 6 -20 -4 -17 0 -20 26 -20
18 1 52 11 76 24 41 21 43 24 23 30 -14 5 -28 2 -38 -8 -16 -16 -58 -13 -78 5
-13 12 -26 11 -26 -1z"/>
<path d="M5319 6273 c-1 -5 -1 -12 0 -17 1 -5 -4 -13 -11 -17 -9 -6 -7 -9 7
-9 30 0 49 16 42 34 -6 16 -36 23 -38 9z"/>
<path d="M5170 6255 c-13 -16 -3 -20 24 -9 9 3 13 10 10 15 -8 13 -20 11 -34
-6z"/>
<path d="M5265 6240 c3 -5 8 -10 11 -10 2 0 4 5 4 10 0 6 -5 10 -11 10 -5 0
-7 -4 -4 -10z"/>
<path d="M5298 6213 c6 -2 18 -2 25 0 6 3 1 5 -13 5 -14 0 -19 -2 -12 -5z"/>
<path d="M3773 5563 c-7 -3 -13 -13 -13 -23 0 -18 19 -30 47 -30 14 0 14 3 -2
20 -18 20 -17 20 13 20 18 0 32 3 32 8 0 8 -58 12 -77 5z"/>
<path d="M3730 5500 c-8 -5 -23 -11 -32 -14 -10 -3 -18 -10 -18 -16 0 -7 8 -9
20 -5 11 4 20 2 20 -4 0 -6 -5 -11 -11 -11 -5 0 -7 -5 -4 -10 6 -10 66 17 73
33 2 4 11 7 20 8 10 0 12 3 5 5 -7 3 -22 0 -33 -6 -20 -11 -21 -10 -15 9 7 22
0 25 -25 11z"/>
<path d="M2880 5261 c0 -5 -10 -11 -22 -13 -13 -2 -24 -11 -27 -23 -2 -11 -8
-23 -14 -27 -7 -4 -1 -17 16 -34 45 -45 106 -34 107 19 0 20 -20 23 -38 5 -6
-6 -15 -8 -19 -3 -5 4 -2 10 5 12 10 4 10 8 1 19 -9 11 -8 14 5 14 9 0 16 8
16 20 0 11 -7 20 -15 20 -8 0 -15 -4 -15 -9z"/>
<path d="M2937 5126 c-19 -14 -23 -36 -7 -36 6 0 10 6 10 14 0 8 6 16 13 19 6
2 10 7 7 10 -3 3 -13 0 -23 -7z"/>
<path d="M2881 5104 c0 -11 3 -14 6 -6 3 7 2 16 -1 19 -3 4 -6 -2 -5 -13z"/>
<path d="M3065 5240 c3 -5 10 -10 16 -10 5 0 9 5 9 10 0 6 -7 10 -16 10 -8 0
-12 -4 -9 -10z"/>
<path d="M5694 5081 c-88 -54 -94 -261 -9 -317 42 -27 87 -28 125 -2 49 33 69
79 70 159 0 73 -7 90 -24 57 -22 -43 -76 -30 -76 18 0 27 29 47 50 34 23 -14
31 -1 15 24 -31 47 -98 59 -151 27z"/>
<path d="M4626 5059 c-33 -26 -33 -39 -1 -39 32 0 55 -41 35 -65 -20 -24 -58
-19 -73 11 -17 32 -25 22 -33 -38 -8 -58 10 -121 47 -162 123 -141 285 80 187
255 -34 61 -110 79 -162 38z"/>
<path d="M2750 4895 c0 -8 5 -15 10 -15 6 0 10 7 10 15 0 8 -4 15 -10 15 -5 0
-10 -7 -10 -15z"/>
<path d="M2865 4870 c3 -5 8 -10 11 -10 2 0 4 5 4 10 0 6 -5 10 -11 10 -5 0
-7 -4 -4 -10z"/>
<path d="M2766 4833 c9 -38 14 -42 14 -10 0 14 -5 29 -10 32 -7 4 -8 -3 -4
-22z"/>
<path d="M2816 4777 c3 -8 -2 -20 -11 -27 -25 -21 -17 -30 25 -30 42 0 54 14
20 23 -12 3 -20 14 -20 26 0 12 -4 21 -10 21 -5 0 -7 -6 -4 -13z"/>
<path d="M2860 4775 c7 -9 15 -13 17 -11 7 7 -7 26 -19 26 -6 0 -6 -6 2 -15z"/>
<path d="M2765 4740 c3 -5 8 -10 11 -10 2 0 4 5 4 10 0 6 -5 10 -11 10 -5 0
-7 -4 -4 -10z"/>
<path d="M4329 4133 c-34 -23 -39 -33 -39 -74 0 -87 107 -129 160 -62 22 29
25 60 9 96 -20 44 -92 66 -130 40z m78 -52 c1 -14 -3 -18 -13 -14 -11 4 -12 9
-3 19 15 18 14 18 16 -5z m33 -25 c0 -3 -4 -8 -10 -11 -5 -3 -10 -1 -10 4 0 6
5 11 10 11 6 0 10 -2 10 -4z"/>
<path d="M3977 4013 c-8 -7 -9 -53 -2 -53 12 0 45 42 40 50 -7 11 -29 13 -38
3z"/>
<path d="M4181 3971 c-24 -15 -21 -51 5 -57 13 -3 28 -3 33 1 17 10 13 52 -5
59 -19 7 -16 8 -33 -3z"/>
</g>
</svg>
